<svg width="400" height="400" viewBox="0 0 400 400" xmlns="http://www.w3.org/2000/svg" role="img" aria-label="Archie on Tour Logo">
  <defs>
    <linearGradient id="bg" x1="0%" y1="0%" x2="100%" y2="100%">
      <stop stop-color="#0b0f1a" offset="0%" />
      <stop stop-color="#1a2236" offset="100%" />
    </linearGradient>
    <radialGradient id="glow" cx="50%" cy="40%" r="60%">
      <stop offset="0%" stop-color="#9dd7ff" stop-opacity="0.4" />
      <stop offset="100%" stop-color="#9dd7ff" stop-opacity="0" />
    </radialGradient>
  </defs>
  <rect width="400" height="400" fill="url(#bg)" />
  <rect width="400" height="400" fill="url(#glow)" />
  <g fill="none" stroke="#f8fafc" stroke-width="10" stroke-linecap="round" stroke-linejoin="round">
    <path d="M90 240c0-60 50-110 110-110s110 50 110 110c0 44-36 80-80 80h-60c-44 0-80-36-80-80z" opacity="0.85" />
    <path d="M120 240c0-43 35-78 78-78s78 35 78 78c0 31-25 56-56 56h-44c-31 0-56-25-56-56z" opacity="0.75" />
    <circle cx="200" cy="190" r="32" />
    <path d="M170 240h60" />
  </g>
  <text x="200" y="330" text-anchor="middle" fill="#f8fafc" font-family="Inter, system-ui, sans-serif" font-size="38" font-weight="700">Archie on Tour</text>
</svg>
